<svg width="22" height="22" viewBox="0 0 22 22" fill="none" xmlns="http://www.w3.org/2000/svg">
<path fill-rule="evenodd" clip-rule="evenodd" d="M11.8497 6.65434C11.8497 8.52938 10.3297 10.0494 8.45463 10.0494C6.57959 10.0494 5.05957 8.52938 5.05957 6.65434C5.05957 4.7793 6.57959 3.25928 8.45463 3.25928C10.3297 3.25928 11.8497 4.7793 11.8497 6.65434ZM10.1522 6.65434C10.1522 5.71682 9.39215 4.95681 8.45463 4.95681C7.51711 4.95681 6.7571 5.71682 6.7571 6.65434C6.7571 7.59186 7.51711 8.35187 8.45463 8.35187C9.39215 8.35187 10.1522 7.59186 10.1522 6.65434Z" fill="#800000"/>
<path fill-rule="evenodd" clip-rule="evenodd" d="M17.7908 9.20059C17.7908 10.6069 16.6508 11.7469 15.2445 11.7469C13.8383 11.7469 12.6982 10.6069 12.6982 9.20059C12.6982 7.79431 13.8383 6.6543 15.2445 6.6543C16.6508 6.6543 17.7908 7.79431 17.7908 9.20059ZM16.0933 9.20059C16.0933 8.73183 15.7133 8.35183 15.2445 8.35183C14.7758 8.35183 14.3958 8.73183 14.3958 9.20059C14.3958 9.66935 14.7758 10.0494 15.2445 10.0494C15.7133 10.0494 16.0933 9.66935 16.0933 9.20059Z" fill="#800000"/>
<path d="M15.2442 12.5958C14.3036 12.5968 13.39 12.9103 12.647 13.487C10.9469 11.7936 8.39524 11.2891 6.17871 12.208C3.96217 13.1269 2.51594 15.2889 2.5127 17.6884C2.5127 18.1571 2.8927 18.5371 3.36146 18.5371C3.83022 18.5371 4.21023 18.1571 4.21023 17.6884C4.21023 15.3446 6.11025 13.4445 8.45405 13.4445C10.7979 13.4445 12.6979 15.3446 12.6979 17.6884C12.6979 18.1571 13.0779 18.5371 13.5466 18.5371C14.0154 18.5371 14.3954 18.1571 14.3954 17.6884C14.3974 16.694 14.1462 15.7155 13.6655 14.845C14.4308 14.2402 15.4744 14.1258 16.3526 14.5505C17.2308 14.9751 17.7892 15.8641 17.7905 16.8396C17.7905 17.3084 18.1705 17.6884 18.6392 17.6884C19.108 17.6884 19.488 17.3084 19.488 16.8396C19.488 14.4958 17.588 12.5958 15.2442 12.5958Z" fill="#800000"/>
</svg>
