<svg width="16" height="16" viewBox="0 0 16 16" fill="none" xmlns="http://www.w3.org/2000/svg">
<path d="M13.5561 7.58738H4.14343L7.02438 4.12706C7.30491 3.78955 7.25872 3.28854 6.92121 3.00801C6.5837 2.72749 6.08269 2.77368 5.80216 3.11119L1.83391 7.87309C1.80721 7.91097 1.78334 7.95076 1.76248 7.99214C1.76248 8.03182 1.76248 8.05563 1.70692 8.09532C1.67095 8.18632 1.65211 8.28318 1.65137 8.38103C1.65211 8.47888 1.67095 8.57575 1.70692 8.66675C1.70692 8.70643 1.70692 8.73024 1.76248 8.76992C1.78334 8.8113 1.80721 8.85109 1.83391 8.88897L5.80216 13.6509C5.95324 13.8323 6.17721 13.937 6.41327 13.9366C6.59871 13.9369 6.77842 13.8724 6.92121 13.754C7.08352 13.6195 7.18561 13.4259 7.20497 13.2159C7.22432 13.006 7.15935 12.797 7.02438 12.635L4.14343 9.17468H13.5561C13.9945 9.17468 14.3498 8.81935 14.3498 8.38103C14.3498 7.94271 13.9945 7.58738 13.5561 7.58738Z" fill="#800000"/>
</svg>
