<svg width="26" height="26" viewBox="0 0 26 26" fill="none" xmlns="http://www.w3.org/2000/svg">
<path fill-rule="evenodd" clip-rule="evenodd" d="M20.6283 2.84375H7.08659C5.21687 2.84375 3.70117 4.35945 3.70117 6.22917V19.7708C3.70117 21.6405 5.21687 23.1562 7.08659 23.1562H20.6283C21.2515 23.1562 21.7567 22.651 21.7567 22.0278V3.97222C21.7567 3.34898 21.2515 2.84375 20.6283 2.84375ZM7.08659 5.10069H19.4998V16.3854H7.08659C6.70162 16.3885 6.31999 16.4572 5.95812 16.5885V6.22917C5.95812 5.60593 6.46335 5.10069 7.08659 5.10069ZM5.95812 19.7708C5.95812 20.3941 6.46335 20.8993 7.08659 20.8993H19.4998V18.6424H7.08659C6.46335 18.6424 5.95812 19.1476 5.95812 19.7708Z" fill="#800000"/>
</svg>
