<svg width="32" height="24" viewBox="0 0 32 24" fill="none" xmlns="http://www.w3.org/2000/svg">
<g clip-path="url(#clip0_260_2088)">
<path d="M0 2.0249H32.2674V22H0V2.0249Z" fill="#79A73A"/>
<path d="M3.07324 8.7167C4.81165 8.19658 6.17168 6.83655 6.6918 5.09814H25.5759C26.096 6.83665 27.456 8.19668 29.1945 8.7167V15.3085C27.456 15.8285 26.096 17.1885 25.5759 18.927H6.9146H6.69103C6.17111 17.1888 4.81136 15.8288 3.07324 15.3085V8.7167Z" fill="#AAC16B"/>
<path d="M16.1334 15.8536C18.2549 15.8536 19.9747 14.1338 19.9747 12.0123C19.9747 9.89074 18.2549 8.1709 16.1334 8.1709C14.0118 8.1709 12.292 9.89074 12.292 12.0123C12.292 14.1338 14.0118 15.8536 16.1334 15.8536Z" fill="#79A73A"/>
<path d="M7.68234 12.7807C8.10664 12.7807 8.45061 12.4367 8.45061 12.0124C8.45061 11.5881 8.10664 11.2441 7.68234 11.2441C7.25803 11.2441 6.91406 11.5881 6.91406 12.0124C6.91406 12.4367 7.25803 12.7807 7.68234 12.7807Z" fill="#79A73A"/>
<path d="M24.5847 12.7807C25.009 12.7807 25.3529 12.4367 25.3529 12.0124C25.3529 11.5881 25.009 11.2441 24.5847 11.2441C24.1604 11.2441 23.8164 11.5881 23.8164 12.0124C23.8164 12.4367 24.1604 12.7807 24.5847 12.7807Z" fill="#79A73A"/>
</g>
<defs>
<clipPath id="clip0_260_2088">
<rect width="32" height="24" fill="white"/>
</clipPath>
</defs>
</svg>
