<svg width="26" height="26" viewBox="0 0 26 26" fill="none" xmlns="http://www.w3.org/2000/svg">
<path d="M16.7391 8.87116C17.1501 8.45781 17.8165 8.45781 18.2276 8.87116C18.6386 9.2845 18.6386 9.95467 18.2276 10.368L12.6865 15.9392C11.6601 16.9711 9.99678 16.9724 8.9688 15.9422L7.05885 14.028C6.64783 13.6146 6.64783 12.9444 7.05885 12.5311C7.46987 12.1177 8.13626 12.1177 8.54728 12.5311L10.0793 14.0718C10.4903 14.4852 11.1567 14.4852 11.5678 14.0718L16.7391 8.87116Z" fill="white"/>
<path fill-rule="evenodd" clip-rule="evenodd" d="M12.6295 24.3441C19.0235 24.3441 24.2068 19.1314 24.2068 12.7012C24.2068 6.27103 19.0235 1.05835 12.6295 1.05835C6.23556 1.05835 1.05225 6.27103 1.05225 12.7012C1.05225 19.1314 6.23556 24.3441 12.6295 24.3441ZM12.6295 22.22C7.40207 22.22 3.16439 17.9583 3.16439 12.7012C3.16439 7.44415 7.40207 3.18246 12.6295 3.18246C17.8569 3.18246 22.0946 7.44415 22.0946 12.7012C22.0946 17.9583 17.8569 22.22 12.6295 22.22Z" fill="white"/>
</svg>
