<svg width="26" height="26" viewBox="0 0 26 26" fill="none" xmlns="http://www.w3.org/2000/svg">
<path d="M8.94583 11.6428C9.81773 11.6428 10.5245 10.9319 10.5245 10.0551C10.5245 9.17826 9.81773 8.46744 8.94583 8.46744C8.07393 8.46744 7.36712 9.17826 7.36712 10.0551C7.36712 10.9319 8.07393 11.6428 8.94583 11.6428Z" fill="white"/>
<path d="M17.8919 10.0551C17.8919 10.9319 17.1851 11.6428 16.3132 11.6428C15.4413 11.6428 14.7345 10.9319 14.7345 10.0551C14.7345 9.17826 15.4413 8.46744 16.3132 8.46744C17.1851 8.46744 17.8919 9.17826 17.8919 10.0551Z" fill="white"/>
<path d="M15.9018 17.4206C16.1655 17.9345 16.7918 18.141 17.3076 17.8817C17.8275 17.6202 18.0383 16.9845 17.7783 16.4616C17.6915 16.2877 17.581 16.1245 17.4651 15.9691C17.2727 15.7112 16.9823 15.3789 16.5735 15.05C15.7425 14.3815 14.4614 13.7596 12.627 13.7596C10.7927 13.7596 9.51153 14.3815 8.68056 15.05C8.27176 15.3789 7.98133 15.7112 7.78893 15.9691C7.67262 16.1251 7.56687 16.2881 7.47632 16.4605C7.21885 16.9765 7.43305 17.6235 7.94644 17.8817C8.46225 18.141 9.0886 17.9345 9.35229 17.4206C9.36682 17.3942 9.56486 17.0495 9.99552 16.703C10.4802 16.3131 11.304 15.8765 12.627 15.8765C13.9501 15.8765 14.7739 16.3131 15.2586 16.703C15.6892 17.0495 15.8873 17.3942 15.9018 17.4206Z" fill="white"/>
<path fill-rule="evenodd" clip-rule="evenodd" d="M12.6295 24.3441C19.0235 24.3441 24.2068 19.1314 24.2068 12.7012C24.2068 6.27103 19.0235 1.05835 12.6295 1.05835C6.23556 1.05835 1.05225 6.27103 1.05225 12.7012C1.05225 19.1314 6.23556 24.3441 12.6295 24.3441ZM12.6295 22.22C7.40207 22.22 3.16439 17.9583 3.16439 12.7012C3.16439 7.44415 7.40207 3.18246 12.6295 3.18246C17.8569 3.18246 22.0946 7.44415 22.0946 12.7012C22.0946 17.9583 17.8569 22.22 12.6295 22.22Z" fill="white"/>
</svg>
