<svg width="21" height="20" viewBox="0 0 21 20" fill="none" xmlns="http://www.w3.org/2000/svg">
<path fill-rule="evenodd" clip-rule="evenodd" d="M3.56632 9.29362C3.43216 9.60414 3.4066 9.76277 3.4066 9.80095V16.3363C3.4066 16.7864 3.78691 17.1515 4.25833 17.1515H6.81354V12.2511C6.81354 11.349 7.57621 10.6177 8.51701 10.6177H11.9239C12.8647 10.6177 13.6274 11.349 13.6274 12.2511V17.1515H16.1826C16.654 17.1515 17.0344 16.7864 17.0344 16.3363V9.80095C17.0344 9.76277 17.0088 9.60414 16.8746 9.29362C16.75 9.00517 16.5611 8.65148 16.3144 8.25118C15.8218 7.45186 15.1307 6.51768 14.3572 5.6276C13.5819 4.73548 12.7449 3.91206 11.9667 3.3198C11.5777 3.02374 11.2201 2.79836 10.9065 2.64997C10.5859 2.49824 10.3602 2.45036 10.2205 2.45036C10.0807 2.45036 9.85504 2.49824 9.53441 2.64997C9.22084 2.79836 8.86326 3.02374 8.47423 3.3198C7.69601 3.91206 6.85908 4.73548 6.08379 5.6276C5.31027 6.51768 4.61914 7.45186 4.12657 8.25118C3.87989 8.65148 3.69095 9.00517 3.56632 9.29362ZM8.78054 1.18517C9.22846 0.973201 9.72144 0.816895 10.2205 0.816895C10.7195 0.816895 11.2125 0.973201 11.6604 1.18517C12.1154 1.40048 12.5763 1.69832 13.0257 2.04033C13.9243 2.72422 14.8441 3.63635 15.6658 4.58188C16.4893 5.52945 17.2355 6.535 17.7809 7.42019C18.0533 7.86215 18.2836 8.28691 18.4484 8.66843C18.6037 9.02789 18.7378 9.43076 18.7378 9.80095V16.3363C18.7378 17.6905 17.5928 18.785 16.1826 18.785H13.6274C12.6866 18.785 11.9239 18.0537 11.9239 17.1515V12.2511H8.51701V17.1515C8.51701 18.0537 7.75434 18.785 6.81354 18.785H4.25833C2.84815 18.785 1.70312 17.6905 1.70312 16.3363V9.80095C1.70312 9.43076 1.83726 9.02789 1.99256 8.66843C2.15739 8.28691 2.38766 7.86215 2.66001 7.42019C3.20549 6.535 3.95166 5.52945 4.77515 4.58188C5.59685 3.63635 6.51663 2.72422 7.41526 2.04033C7.86466 1.69832 8.32554 1.40048 8.78054 1.18517Z" fill="#800000"/>
</svg>
