<svg width="26" height="26" viewBox="0 0 26 26" fill="none" xmlns="http://www.w3.org/2000/svg">
<path d="M5.41667 22.75H20.5833C21.7799 22.75 22.75 21.7799 22.75 20.5833V5.41667C22.75 4.22005 21.7799 3.25 20.5833 3.25H5.41667C4.22005 3.25 3.25 4.22005 3.25 5.41667V20.5833C3.25 21.7799 4.22005 22.75 5.41667 22.75ZM5.41667 22.75L17.3333 10.8333L22.75 16.25M10.8333 9.20833C10.8333 10.1058 10.1058 10.8333 9.20833 10.8333C8.31087 10.8333 7.58333 10.1058 7.58333 9.20833C7.58333 8.31087 8.31087 7.58333 9.20833 7.58333C10.1058 7.58333 10.8333 8.31087 10.8333 9.20833Z" stroke="white" stroke-width="1.5" stroke-linecap="round" stroke-linejoin="round"/>
</svg>
