<svg width="20" height="20" viewBox="0 0 20 20" fill="none" xmlns="http://www.w3.org/2000/svg">
<path d="M15.1851 15.278C14.6737 15.278 14.2592 15.6926 14.2592 16.204C14.2592 16.7153 14.6737 17.1299 15.1851 17.1299L17.037 17.1299C17.5483 17.1299 17.9629 16.7153 17.9629 16.204L17.9629 3.241C17.9629 2.72962 17.5483 2.31507 17.037 2.31507L15.1851 2.31507C14.6737 2.31507 14.2592 2.72962 14.2592 3.241C14.2592 3.75237 14.6737 4.16692 15.1851 4.16692L16.111 4.16692L16.111 15.278L15.1851 15.278Z" fill="#FE5050"/>
<path d="M2.38856 10.2595L4.99967 13.9632C5.29447 14.3788 5.86963 14.4781 6.28671 14.1855C6.48898 14.0437 6.62624 13.8271 6.66797 13.5836C6.7097 13.3402 6.65244 13.0902 6.50893 12.8892L4.91634 10.6484L12.4071 10.6484C12.9185 10.6484 13.333 10.2339 13.333 9.72251C13.333 9.21113 12.9185 8.79658 12.4071 8.79658L4.99968 8.79658L6.66634 6.57436C6.81368 6.3779 6.87695 6.13096 6.84222 5.88786C6.80749 5.64475 6.67761 5.4254 6.48116 5.27806C6.32088 5.15785 6.12594 5.09287 5.9256 5.09287C5.63416 5.09287 5.35973 5.23009 5.18486 5.46325L2.40708 9.16695C2.16375 9.48829 2.15626 9.93014 2.38856 10.2595V10.2595Z" fill="#FE5050"/>
</svg>
