<svg width="14" height="16" viewBox="0 0 14 16" fill="none" xmlns="http://www.w3.org/2000/svg">
<path d="M13.7139 12.5215C13.6232 13.2543 13.5835 13.5719 13.2451 14.2861L8.04785 15.3594C8.16732 14.5873 8.3271 13.992 8.58594 13.6348L13.7139 12.5215ZM6.47559 7.4668L8.02832 7.12988V2.22266C8.60692 1.57317 8.9627 1.28176 9.66113 0.913086V6.77539L13.7139 5.89551C13.6232 6.62847 13.5836 6.94665 13.2451 7.66113L9.66113 8.41797V10.0664L13.7139 9.20898C13.6232 9.9418 13.5835 10.2593 13.2451 10.9736L9.66113 11.7129V11.7295L8.02832 12.0664V8.76367L6.47559 9.0918V11.1738L6.44824 11.1787C6.09111 11.8049 5.5875 12.5576 5.10156 13.1582L0 14.1299C0.0457364 13.4736 0.14169 13.1035 0.438477 12.4424L4.84277 11.4873V9.43652L0.760742 10.3008C0.806479 9.64445 0.901455 9.27439 1.19824 8.61328L4.84277 7.82129V1.30957C5.42126 0.660228 5.77723 0.368636 6.47559 0V7.4668Z" fill="#800000"/>
</svg>
