<svg width="42" height="40" viewBox="0 0 42 40" fill="none" xmlns="http://www.w3.org/2000/svg">
<path d="M5.25 4C4.69772 4 4.25 4.44772 4.25 5C4.25 5.55228 4.69772 6 5.25 6V5V4ZM8.75 5L9.74675 4.91949C9.7048 4.40012 9.27107 4 8.75 4V5ZM36.75 10L37.7433 10.1159C37.7763 9.8324 37.6867 9.5483 37.497 9.33512C37.3072 9.12194 37.0354 9 36.75 9V10ZM9.15385 10L8.15709 10.0805V10.0805L9.15385 10ZM35.1926 23.3492L34.1993 23.2333L35.1926 23.3492ZM5.25 5V6H8.75V5V4H5.25V5ZM12.4703 26.5326L12.5381 27.5303L33.4097 26.1105L33.3418 25.1128L33.2739 24.1151L12.4024 25.5349L12.4703 26.5326ZM35.1926 23.3492L36.1859 23.4651L37.7433 10.1159L36.75 10L35.7567 9.88412L34.1993 23.2333L35.1926 23.3492ZM8.75 5L7.75325 5.08051L8.15709 10.0805L9.15385 10L10.1506 9.91949L9.74675 4.91949L8.75 5ZM9.15385 10L8.15709 10.0805L9.34426 24.7788L10.341 24.6983L11.3378 24.6178L10.1506 9.91949L9.15385 10ZM36.75 10V9H9.15385V10V11H36.75V10ZM33.3418 25.1128L33.4097 26.1105C34.8514 26.0124 36.0184 24.9004 36.1859 23.4651L35.1926 23.3492L34.1993 23.2333C34.1435 23.7117 33.7545 24.0824 33.2739 24.1151L33.3418 25.1128ZM12.4703 26.5326L12.4024 25.5349C11.8563 25.5721 11.3818 25.1633 11.3378 24.6178L10.341 24.6983L9.34426 24.7788C9.47645 26.4155 10.8999 27.6418 12.5381 27.5303L12.4703 26.5326Z" fill="#292929"/>
<path d="M20.125 18.3335H25.375" stroke="#292929" stroke-width="2" stroke-linecap="round" stroke-linejoin="round"/>
<rect x="30.625" y="34.1665" width="0.0166274" height="0.0166667" stroke="#292929" stroke-width="3" stroke-linejoin="round"/>
<rect x="14.875" y="34.1665" width="0.0166274" height="0.0166667" stroke="#292929" stroke-width="3" stroke-linejoin="round"/>
</svg>
