<svg width="25" height="24" viewBox="0 0 25 24" fill="none" xmlns="http://www.w3.org/2000/svg">
<path d="M22 5.97998C18.485 5.64998 14.949 5.47998 11.423 5.47998C9.333 5.47998 7.243 5.57998 5.153 5.77998L3 5.97998" stroke="#FF0000" stroke-width="1.5" stroke-linecap="round" stroke-linejoin="round"/>
<path d="M9 4.97L9.22 3.66C9.38 2.71 9.5 2 11.19 2H13.81C15.5 2 15.63 2.75 15.78 3.67L16 4.97" stroke="#FF0000" stroke-width="1.5" stroke-linecap="round" stroke-linejoin="round"/>
<path d="M19.8504 9.14014L19.1504 19.2101C19.0324 20.7801 18.9354 22.0001 15.9424 22.0001H9.05639C6.06239 22.0001 5.96539 20.7801 5.85039 19.2101L5.15039 9.14014" stroke="#FF0000" stroke-width="1.5" stroke-linecap="round" stroke-linejoin="round"/>
<path d="M10.8301 16.5H14.1601" stroke="#FF0000" stroke-width="1.5" stroke-linecap="round" stroke-linejoin="round"/>
<path d="M10 12.5H15" stroke="#FF0000" stroke-width="1.5" stroke-linecap="round" stroke-linejoin="round"/>
</svg>
