<svg width="24" height="24" viewBox="0 0 24 24" fill="none" xmlns="http://www.w3.org/2000/svg">
<path d="M11.9998 14H12.9998C13.5297 13.9984 14.0375 13.7872 14.4122 13.4125C14.787 13.0377 14.9982 12.5299 14.9998 12V2H5.99977C5.28829 2.00044 4.58981 2.19064 3.97634 2.55099C3.36287 2.91134 2.85661 3.42879 2.50977 4.05" stroke="#800000" stroke-width="1.5" stroke-linecap="round" stroke-linejoin="round"/>
<path d="M2 17C2 17.7956 2.31607 18.5587 2.87868 19.1213C3.44129 19.6839 4.20435 20 5 20H6C6 19.4696 6.21071 18.9609 6.58579 18.5858C6.96086 18.2107 7.46957 18 8 18C8.53043 18 9.03914 18.2107 9.41421 18.5858C9.78929 18.9609 10 19.4696 10 20H14C14 19.4696 14.2107 18.9609 14.5858 18.5858C14.9609 18.2107 15.4696 18 16 18C16.5304 18 17.0391 18.2107 17.4142 18.5858C17.7893 18.9609 18 19.4696 18 20H19C19.7956 20 20.5587 19.6839 21.1213 19.1213C21.6839 18.5587 22 17.7956 22 17V14H19C18.7348 14 18.4804 13.8946 18.2929 13.7071C18.1054 13.5196 18 13.2652 18 13V10C18 9.73478 18.1054 9.48043 18.2929 9.29289C18.4804 9.10536 18.7348 9 19 9H20.29L18.58 6.01C18.4038 5.70402 18.1504 5.44968 17.845 5.27243C17.5396 5.09518 17.1931 5.00124 16.84 5H15V12C14.9984 12.5299 14.7872 13.0377 14.4125 13.4125C14.0377 13.7872 13.5299 13.9984 13 14H12" stroke="#800000" stroke-width="1.5" stroke-linecap="round" stroke-linejoin="round"/>
<path d="M10 20C10 20.3956 9.8827 20.7822 9.66294 21.1111C9.44318 21.44 9.13082 21.6964 8.76537 21.8478C8.39992 21.9991 7.99778 22.0387 7.60982 21.9616C7.22186 21.8844 6.86549 21.6939 6.58579 21.4142C6.30608 21.1345 6.1156 20.7781 6.03843 20.3902C5.96126 20.0022 6.00087 19.6001 6.15224 19.2346C6.30362 18.8692 6.55996 18.5568 6.88886 18.3371C7.21776 18.1173 7.60444 18 8 18C8.53043 18 9.03914 18.2107 9.41421 18.5858C9.78929 18.9609 10 19.4696 10 20Z" stroke="#800000" stroke-width="1.5" stroke-linecap="round" stroke-linejoin="round"/>
<path d="M18 20C18 20.3956 17.8827 20.7822 17.6629 21.1111C17.4432 21.44 17.1308 21.6964 16.7654 21.8478C16.3999 21.9991 15.9978 22.0387 15.6098 21.9616C15.2219 21.8844 14.8655 21.6939 14.5858 21.4142C14.3061 21.1345 14.1156 20.7781 14.0384 20.3902C13.9613 20.0022 14.0009 19.6001 14.1522 19.2346C14.3036 18.8692 14.56 18.5568 14.8889 18.3371C15.2178 18.1173 15.6044 18 16 18C16.5304 18 17.0391 18.2107 17.4142 18.5858C17.7893 18.9609 18 19.4696 18 20Z" stroke="#800000" stroke-width="1.5" stroke-linecap="round" stroke-linejoin="round"/>
<path d="M22 12V14H19C18.7348 14 18.4804 13.8946 18.2929 13.7071C18.1054 13.5196 18 13.2652 18 13V10C18 9.73478 18.1054 9.48043 18.2929 9.29289C18.4804 9.10536 18.7348 9 19 9H20.29L22 12Z" stroke="#800000" stroke-width="1.5" stroke-linecap="round" stroke-linejoin="round"/>
<path d="M2 8H8" stroke="#800000" stroke-width="1.5" stroke-linecap="round" stroke-linejoin="round"/>
<path d="M2 11H6" stroke="#800000" stroke-width="1.5" stroke-linecap="round" stroke-linejoin="round"/>
<path d="M2 14H4" stroke="#800000" stroke-width="1.5" stroke-linecap="round" stroke-linejoin="round"/>
</svg>
