<svg width="32" height="24" viewBox="0 0 32 24" fill="none" xmlns="http://www.w3.org/2000/svg">
<g clip-path="url(#clip0_260_2091)">
<path d="M11.7334 16.4475L13.3588 7.30469H15.8985L14.3239 16.4475H11.7334Z" fill="#3C58BF"/>
<path d="M11.7334 16.4475L13.8159 7.30469H15.8985L14.3239 16.4475H11.7334Z" fill="#293688"/>
<path d="M7.0605 13.7047L6.80653 12.384C6.34939 10.8602 4.87637 9.18404 3.25098 8.37134L5.53669 16.4983H8.27955L12.3938 7.35547H9.65098L7.0605 13.7047Z" fill="#3C58BF"/>
<path d="M7.0605 13.7047L6.80653 12.384C6.34939 10.8602 4.87637 9.18404 3.25098 8.37134L5.53669 16.4983H8.27955L12.3938 7.35547H10.1589L7.0605 13.7047Z" fill="#293688"/>
<path d="M23.5175 7.40635C23.0096 7.20317 22.1969 7 21.181 7C18.6413 7 16.8128 8.26984 16.8128 10.0984C16.8128 11.4698 18.0826 12.181 19.0985 12.6381C20.1143 13.0952 20.4191 13.4 20.4191 13.8063C20.4191 14.4159 19.6064 14.7206 18.8953 14.7206C17.8794 14.7206 17.3207 14.5683 16.4572 14.2127L16.1016 14.0603L15.7461 16.1429C16.3556 16.3968 17.4731 16.6508 18.6413 16.6508C21.3334 16.6508 23.1112 15.381 23.1112 13.4508C23.1112 12.3841 22.4509 11.5714 20.927 10.9111C20.0128 10.454 19.454 10.2 19.454 9.74286C19.454 9.33651 19.9112 8.93016 20.927 8.93016C21.7905 8.93016 22.4001 9.08254 22.8572 9.28571L23.1112 9.3873L23.5175 7.40635Z" fill="#3C58BF"/>
<path d="M23.5175 7.40635C23.0096 7.20317 22.1969 7 21.181 7C18.6413 7 17.2699 8.26984 17.2699 10.0984C17.2699 11.4698 18.0826 12.181 19.0985 12.6381C20.1143 13.0952 20.4191 13.4 20.4191 13.8063C20.4191 14.4159 19.6064 14.7206 18.8953 14.7206C17.8794 14.7206 17.3207 14.5683 16.4572 14.2127L16.1016 14.0603L15.7461 16.1429C16.3556 16.3968 17.4731 16.6508 18.6413 16.6508C21.3334 16.6508 23.1112 15.381 23.1112 13.4508C23.1112 12.3841 22.4509 11.5714 20.927 10.9111C20.0128 10.454 19.454 10.2 19.454 9.74286C19.454 9.33651 19.9112 8.93016 20.927 8.93016C21.7905 8.93016 22.4001 9.08254 22.8572 9.28571L23.1112 9.3873L23.5175 7.40635Z" fill="#293688"/>
<path d="M27.886 7.30469C27.2765 7.30469 26.8193 7.35548 26.5654 7.96501L22.7559 16.4475H25.4987L26.0066 14.9237H29.2574L29.5622 16.4475H32.0003L29.8669 7.30469H27.886ZM26.7178 13.3999C26.8701 12.9428 27.7336 10.7079 27.7336 10.7079C27.7336 10.7079 27.9368 10.1491 28.0892 9.79358L28.2416 10.6571C28.2416 10.6571 28.7495 12.9428 28.8511 13.4507H26.7178V13.3999Z" fill="#3C58BF"/>
<path d="M28.4955 7.30469C27.886 7.30469 27.4289 7.35548 27.1749 7.96501L22.7559 16.4475H25.4987L26.0066 14.9237H29.2574L29.5622 16.4475H32.0003L29.8669 7.30469H28.4955ZM26.7178 13.3999C26.9209 12.892 27.7336 10.7079 27.7336 10.7079C27.7336 10.7079 27.9368 10.1491 28.0892 9.79358L28.2416 10.6571C28.2416 10.6571 28.7495 12.9428 28.8511 13.4507H26.7178V13.3999Z" fill="#293688"/>
<path d="M0 7.30469L0.457143 7.40628C3.70794 8.16818 5.94286 10.0983 6.80635 12.3841L5.89206 8.06659C5.73968 7.45707 5.28254 7.30469 4.72381 7.30469H0Z" fill="#FFBC00"/>
<path d="M0 7.30469C3.25079 8.06659 5.94286 10.0475 6.80635 12.3333L5.94286 8.72691C5.79048 8.11739 5.28254 7.76183 4.72381 7.76183L0 7.30469Z" fill="#F7981D"/>
<path d="M0 7.30469C3.25079 8.06659 5.94286 10.0475 6.80635 12.3333L6.19683 10.3523C6.04444 9.74278 5.84127 9.13326 5.13016 8.87929L0 7.30469Z" fill="#ED7C00"/>
<path d="M9.60017 13.4002L7.87319 11.6732L7.06049 13.6033L6.85731 12.3335C6.40017 10.8097 4.92715 9.1335 3.30176 8.3208L5.58747 16.4478H8.33033L9.60017 13.4002Z" fill="#051244"/>
<path d="M14.3239 16.4478L12.1397 14.2129L11.7334 16.4478H14.3239Z" fill="#051244"/>
<path d="M20.1651 13.2988C20.3683 13.502 20.4699 13.6544 20.4191 13.8576C20.4191 14.4671 19.6064 14.7718 18.8953 14.7718C17.8794 14.7718 17.3207 14.6195 16.4572 14.2639L16.1016 14.1115L15.7461 16.1941C16.3556 16.448 17.4731 16.702 18.6413 16.702C20.2667 16.702 21.5874 16.2449 22.3493 15.4322L20.1651 13.2988Z" fill="#051244"/>
<path d="M23.1113 16.4479H25.4986L26.0066 14.9241H29.2574L29.5621 16.4479H32.0002L31.1367 12.74L28.0891 9.79395L28.2415 10.6066C28.2415 10.6066 28.7494 12.8924 28.851 13.4003H26.7177C26.9209 12.8924 27.7336 10.7082 27.7336 10.7082C27.7336 10.7082 27.9367 10.1495 28.0891 9.79395" fill="#051244"/>
</g>
<defs>
<clipPath id="clip0_260_2091">
<rect width="32" height="24" fill="white"/>
</clipPath>
</defs>
</svg>
