<svg width="29" height="30" viewBox="0 0 29 30" fill="none" xmlns="http://www.w3.org/2000/svg">
<path d="M17.7607 4.46533H22.2007C22.4362 4.46533 22.6621 4.55942 22.8286 4.7269C22.9951 4.89438 23.0887 5.12154 23.0887 5.35839V24.1127C23.0887 24.3495 22.9951 24.5767 22.8286 24.7441C22.6621 24.9116 22.4362 25.0057 22.2007 25.0057H6.21615C5.98063 25.0057 5.75476 24.9116 5.58822 24.7441C5.42169 24.5767 5.32812 24.3495 5.32812 24.1127V5.35839C5.32812 5.12154 5.42169 4.89438 5.58822 4.7269C5.75476 4.55942 5.98063 4.46533 6.21615 4.46533H10.6561" stroke="#EFEFEF" stroke-width="2" stroke-linecap="round" stroke-linejoin="round"/>
<path d="M9.76855 8.03756V7.1445C9.76855 5.96023 10.2364 4.82446 11.069 3.98706C11.9017 3.14965 13.0311 2.6792 14.2087 2.6792C15.3863 2.6792 16.5157 3.14965 17.3484 3.98706C18.181 4.82446 18.6488 5.96023 18.6488 7.1445V8.03756H9.76855Z" stroke="#EFEFEF" stroke-width="2" stroke-linecap="round" stroke-linejoin="round"/>
<mask id="mask0_220_6376" style="mask-type:alpha" maskUnits="userSpaceOnUse" x="7" y="10" width="14" height="12">
<path d="M20.6769 12.409L20.5599 12.0558C20.2687 11.1773 19.4473 10.5842 18.5218 10.5842C17.9502 10.5842 17.4022 10.8121 16.9992 11.2174L15.0805 13.147C14.3302 13.9016 13.1091 13.9016 12.3588 13.147C11.726 12.5106 10.7366 12.3978 9.9767 12.8754L9.32905 13.2825C8.18392 14.0022 7.69521 15.4228 8.15513 16.6947L8.72493 18.2705C9.11108 19.3385 9.85235 20.2413 10.8247 20.828L11.5928 21.2916C13.1574 22.2356 15.149 22.0814 16.5495 20.9076C16.9402 20.5803 17.2691 20.1857 17.5209 19.7426L20.4646 14.562C20.8369 13.9068 20.9141 13.1244 20.6769 12.409Z" fill="#D9D9D9"/>
</mask>
<g mask="url(#mask0_220_6376)">
<path d="M18.3571 12.8382C18.7388 12.4544 19.3576 12.4544 19.7392 12.8382C20.1209 13.222 20.1209 13.8443 19.7392 14.2281L14.1148 19.8834C13.3515 20.6509 12.114 20.6509 11.3507 19.8833L9.60812 18.1308C9.22646 17.747 9.22646 17.1247 9.60812 16.7408C9.98978 16.357 10.6086 16.357 10.9902 16.7408L12.0423 17.7989C12.424 18.1827 13.0428 18.1827 13.4244 17.7989L18.3571 12.8382Z" fill="#EFEFEF"/>
<path fill-rule="evenodd" clip-rule="evenodd" d="M14.2084 5.67236C13.2573 5.67236 12.5491 6.05823 11.9472 6.38619C11.807 6.46255 11.6727 6.53578 11.5423 6.60026C10.7849 6.97495 9.63713 7.42003 7.30414 7.57856C5.77266 7.68263 4.41015 8.9364 4.47122 10.6218C4.57166 13.3941 4.89145 16.2304 5.53459 18.6206C6.16391 20.9593 7.16036 23.0936 8.77977 24.1793C10.3284 25.2176 11.6022 26.1176 12.4544 26.732C13.5008 27.4864 14.9159 27.4864 15.9624 26.732C16.8145 26.1176 18.0883 25.2176 19.637 24.1793C21.2564 23.0936 22.2529 20.9594 22.8822 18.6206C23.5253 16.2305 23.8451 13.3942 23.9456 10.6218C24.0066 8.9364 22.6441 7.68263 21.1126 7.57856C18.7796 7.42003 17.6319 6.97495 16.8745 6.60026C16.7441 6.53579 16.6098 6.46258 16.4696 6.38622C15.8677 6.05826 15.1595 5.67236 14.2084 5.67236ZM7.4359 9.53977C10.0087 9.36495 11.4065 8.85805 12.405 8.36409C12.6903 8.22298 12.9109 8.10539 13.092 8.00884C13.5876 7.74467 13.7876 7.63804 14.2084 7.63804C14.6292 7.63804 14.8292 7.74467 15.3248 8.00884C15.5059 8.10539 15.7265 8.22298 16.0117 8.36409C17.0102 8.85805 18.4081 9.36495 20.9809 9.53977C21.6035 9.58208 22.0098 10.0659 21.9922 10.5502C21.8948 13.239 21.5858 15.9133 20.9954 18.1072C20.3913 20.3524 19.5497 21.8754 18.5528 22.5438C16.9824 23.5966 15.6902 24.5096 14.8236 25.1344C14.4579 25.398 13.9589 25.398 13.5932 25.1344C12.7266 24.5096 11.4343 23.5966 9.86399 22.5438C8.86711 21.8754 8.02549 20.3524 7.42134 18.1071C6.83101 15.9133 6.52194 13.2389 6.42452 10.5502C6.40697 10.0659 6.8133 9.58208 7.4359 9.53977Z" fill="#EFEFEF"/>
</g>
</svg>
